<?xml version="1.0" encoding="utf-8"?>
<svg version="1.1" xmlns:xlink="http://www.w3.org/1999/xlink" width="332px" height="44px" xmlns="http://www.w3.org/2000/svg">
  <g transform="matrix(1 0 0 1 -92 -29 )">
    <path d="M 114.8675911717887 30.685122624288844  L 106.17372474222368 8  L 96.09912377565216 8  L 96.09912377565216 7.323838342036847  C 96.46261961109103 7.94523932224675  96.6424326780631 8.655122451703333  96.61808951542356 9.372660653081123  C 96.61808951542356 10.592534167013234  95.87534955758558 12.712005523265935  95.5992026501843 13.611603365586525  L 89.23354031922675 31.834347093012543  C 88.40509959702284 34.16105564854328  88.28130960404984 34.82515667350246  86.68632315612855 37.081216183824786  L 86.68632315612855 37.222514274241625  L 95.08499806398875 37.222514274241625  L 95.08499806398873 37.081216183824786  C 94.68882613794783 36.43318267488344  94.478173573999 35.69080574024627  94.47557040627554 34.933485209488715  C 94.57624294700557 33.66858219095755  94.86170525448347 32.42479041777712  95.32305574278298 31.240895113261782  L 95.75632071818846 29.950372554121248  L 104.8786909695831 29.950372554121248  C 104.8786909695831 29.950372554121248  105.46431285941689 31.594140339303898  105.80235476330468 32.55967729048568  C 106.05258798287642 33.29768015429863  106.1827602355251 34.070311846654945  106.18800820295132 34.8487063552386  C 106.16206974166593 35.61311748068666  106.00092778333708 36.367119702372065  105.7118928453629 37.07650624747755  L 105.7118928453629 37  L 117.88616253889947 37  L 117.88616253889947 37.07650624747755  C 116.56732299837948 35.44215833498936  115.98170110854569 33.609993095917574  114.8675911717887 30.685122624288844  Z M 103.18372029656823 25.085008307434485  L 97.39415754829274 25.085008307434485  L 100.19847700448867 16.701321609368247  L 100.24132738667164 16.701321609368247  L 103.18372029656823 25.085008307434485  Z M 81.5204715262939 24.84951149007308  L 81.5204715262939 30.557954342913686  C 81.5204715262939 33.20022863370872  81.71567882290518 35.66352534330908  82.59649223444379 37.08121618382478  L 82.59649223444379 37  L 70.74598098406734 37  L 70.74598098406734 37.08121618382478  C 71.94103053161436 35.093623045294464  71.73153977427543 33.021251052514046  71.73153977427543 30.647443133511022  L 71.73153977427543 24.5527855001977  L 70.06513602271586 21.4489374473743  L 64.35175173165449 10.837450857069104  C 63.72641094637733 9.511456160941744  62.8467810608401 8.318175089932266  61.76168418637335 7.323838342036848  L 61.76168418637335 8  L 72.14576013537739 8  L 72.14576013537739 7.323838342036848  L 78.32097632329953 19.725100744288767  L 80.02546930346618 16.296267083506617  C 80.64918042190706 15.029294206102222  81.4300096083521 13.47030527516968  81.71567882290518 12.895693040807837  C 82.22988340910071 11.878346789806542  82.7774160703274 10.540724867193726  82.7774160703274 9.424469952900635  C 82.82223228236164 8.701467340184625  82.596867521637 7.987387431387496  82.14418264473477 7.418037068981412  L 82.14418264473477 7.187250187967228  L 90.40478409889432 7.187250187967228  L 90.40478409889432 7.323838342036847  L 82.14418264473477 23.62021810344651  L 81.5204715262939 24.84951149007308  Z M 142.35849191894567 30.515564915788637  L 141.5490958110453 37  L 120.1572327945964 37  L 120.1572327945964 37.085926120172005  C 121.0475685132868 35.15956215415566  121.13803043122859 33.581733477834206  122 30.699252433330532  L 122 13.672832538100492  C 121.13803043122859 10.173349832109924  120.80474968091667 8.75565899159423  120.1572327945964 7.328548278384074  L 120.1572327945964 8  L 131.76492521260272 8  L 131.76492521260272 7.328548278384074  C 131.02218525476476 9.38679046212281  130.93172333682293 10.597244103360463  131 13.762321328697833  L 131 31.014818168594818  C 132.42029992664024 31.27518997505705  133.92887191034222 31.407562603542598  135.44053577318556 31.410452821762004  C 138.9495059586124 31.410452821762004  140.77778893175204 31.11372683188663  142.1061507794238 30.515564915788637  L 142.35849191894567 30.515564915788637  Z M 64.1327386671638 22.05651923616674  C 64.1327386671638 13.45146552978077  57.44807904662202 6.457210054146852  47.56868537666174 6.457210054146852  C 38.08922860707577 6.457210054146852  31.566448208114036 12.226882079501431  31.566448208114036 20.42217132367854  C 31.566448208114036 32.366569900249324  44.42156286300211 34.080986730640404  48.8065853063917 30.204709116871566  L 48.05908419497784 28.65984999498071  C 44.17398287705612 29.451119301315057  40.64596807732573 26.502699147950185  40.64596807732573 19.97943730703909  C 40.64596807732573 14.661919171018424  43.46457099424933 11.346123982569754  47.41632846223345 11.346123982569754  C 51.934663205747796 11.346123982569754  54.796116504854375 15.872372812256076  54.796116504854375 22.376794907778258  C 54.796116504854375 29.78552478196826  50.51107828655835 35.39505897151708  42.417117207554746 35.39505897151708  C 33.2042850382183 35.39505897151708  26.20062812809224 28.207696105646807  21.944156831251526 21.034463048818218  C 26.705310407135997 19.17874812801029  29.519152170483718 15.646295867589119  29.519152170483718 10.813901175332964  C 29.519152170483718 4.554395769866649  24.757998594599247 0.19770464868054055  16.15459408297601 1  L 0 1  L 0 0.33429280275015916  C 0.6475168863202881 1.747273706918627  0.9855587902080852 4.323608888852466  1 7.827801531190266  L 1 30.699252433330535  C 0.9855587902080852 33.57702354148698  0.8950968722662803 35.159562154155665  0 37.08592612017202  L 0 37  L 12.088568929170671 37  L 12.088568929170671 37.081216183824786  C 11.307739742725618 35.1972416449335  11.08396552465905 32.84227347131939  11.08396552465905 30.689832560636088  C 11.08396552465905 27.138540554825997  11.08396552465905 24.369097982655802  11.08396552465905 24.369097982655802  L 12.559923133183236 24.369097982655802  C 20.94907573389167 36.506603949462935  30.47138288566061 41.54152590464991  40.665012691629265 41.54152590464991  C 55.42458877687112 41.54152590464991  64.1327386671638 32.35244009120764  64.1327386671638 22.05651923616674  Z M 13.164589637320564 19.560252972135775  L 11 19.574382781177462  L 11 5.849628265354412  L 14.416773027778177 5.849628265354412  C 18.320918960003443 5.849628265354412  19.958755790107702 8.105687775676731  19.958755790107702 11.732338763042467  C 19.958755790107702 16.1267093750064  17.33536016979536 19.560252972135775  13.164589637320564 19.560252972135775  Z M 213.50917095696317 7.187250187967229  L 213.52345441769089 7.328548278384075  C 212.8759375313706 8.741529182552544  212.57122370251398 10.154510086721011  212 13.672832538100492  L 212 32.34302021851319  C 212.5355129975397 33.97221762204438  212.86052064606184 35.58942015960043  213.52345441769089 37.081216183824786  L 213.52345441769089 37.21780433789441  L 206.4626636646542 37.21780433789441  C 204.95813913467467 36.59138280371305  203.3012576902669 34.75450762829404  201.19682780972596 32.50786799066618  C 199.47805136883164 30.65686300620548  191.2745837575827 21.3829983385131  191.2745837575827 21.3829983385131  L 191.13174915030618 21.3829983385131  L 191.13174915030615 30.331877398246732  C 188.64756468122266 30.60057427621226  186.19027474068665 31.073196978479825  183 31.744858302415206  L 183 13.668122601753268  C 183.78528918271644 10.168639895762697  183.45200843240454 8.75565899159423  182.80449154608425 7.328548278384075  L 182.80449154608425 7.191960124314457  L 191.3745679826763 7.191960124314457  L 205.18191335274125 23.59195848536314  L 205.18191335274125 23.54014918554363  L 205.18191335274125 13.668122601753268  C 205.18191335274125 10.168639895762697  204.84863260242935 8.750949055247  204.20111571610906 7.323838342036848  L 204.20111571610906 7.187250187967229  L 213.50917095696317 7.187250187967229  Z M 200.92068090232462 37.227224210588865  L 199.36854483658632 37.227224210588865  C 187.34663205747802 37.335552746575104  184.48993991194735 43.821135096708375  169.22092039408585 43.821135096708375  C 164.51913141969655 43.769770857057146  159.84229605380864 43.13686727637661  155.29930733819967 41.93716055781709  L 155.29930733819967 41.80057240374746  C 156.19440421046593 39.87420843773111  156.28486612840774 38.31521950679857  157 35.4327384622949  L 157 7.827801531190266  C 156.28486612840774 4.3236088888524655  155.95158537809584 1.761403515960311  155.29930733819967 0.3342928027501587  L 155.29930733819967 1  L 179.971605168433 1  L 180.78100127633334 6.965883179647502  L 180.64292782263269 6.965883179647502  C 178.81940600306893 6.259392727563267  176.5197688259167 6.0238959102018566  173.29646785504292 6.0238959102018566  L 166 6.0238959102018566  L 166 17.751637414800136  L 169.9731826590756 17.751637414800136  C 174.81051469217422 17.751637414800136  177.71481837346374 17.40781206145248  178.4623194848776 17.224124543910577  L 178.69085485652008 17.224124543910577  L 178.69085485652008 24.25605951032232  L 178.4623194848776 24.25605951032232  C 177.45295492679008 23.898104347932975  174.1153862700951 23.573118739974223  170.09697265204858 23.573118739974223  L 166 23.573118739974223  L 166 35.26789069014191  C 169.23341619113884 35.80766303178295  171.66605706570954 36.10748579649648  174.1106251165192 36.162778596115274  C 183.185383832155 36.162778596115274  187.08952976438027 32.950602007305626  196.16904963359195 32.950602007305626  C 196.4642411552968 32.950602007305626  196.6784930662116 32.950602007305626  196.98320689506815 32.950602007305626  C 198.18736019914704 34.47019053192663  199.5034388851658 35.899627607453496  200.92068090232462 37.227224210588865  Z M 251.7698010927708 13.668122601753268  L 251 13.677542474447725  L 251 30.69454249698331  C 251.7698010927708 33.572313605139755  251.85550185713666 35.15485221780844  252.75535988297887 37.081216183824786  L 252.75535988297887 37  L 240.99054939696842 37  L 240.99054939696842 37.081216183824786  C 241.88564626923466 35.15485221780844  241.97134703360058 33.572313605139755  242 30.69454249698331  L 242 13.668122601753268  C 241.97134703360058 10.168639895762697  241.63806628328868 8.750949055247  240.99054939696842 7.323838342036848  L 240.99054939696842 8  L 252.75535988297887 8  L 252.75535988297887 7.323838342036848  C 252.10308184308272 8.750949055246998  251.7698010927708 10.168639895762697  251.7698010927708 13.668122601753268  Z M 228.22113550644622 20.285583169608927  L 228.22113550644622 20.29029310595615  L 229.04005392149833 20.29029310595615  C 233.37746482912908 20.29029310595615  234.7772439804391 19.984147243386317  235.44856663463887 19.81929947123333  L 235.67710200628133 19.81929947123333  L 235.67710200628133 26.017575704185678  L 235.47237240251826 26.017575704185678  C 234.56775322310025 25.69730003257416  232.77279832499175 25.40528397904601  229.17812737519898 25.40528397904601  L 228.2258966600221 25.40528397904601  L 228.2258966600221 30.553244406566463  C 228.2258966600221 33.553473859750845  228.38301472802627 35.61171604348957  229.30191736817193 37.081216183824786  L 229.30191736817193 37  L 217.432361503492 37  L 217.432361503492 37.081216183824786  C 218.3226972221824 35.15485221780844  218.4131591401242 33.572313605139755  218 30.69454249698331  L 218 13.668122601753268  C 218.4131591401242 10.168639895762697  218.0798783898123 8.750949055247  217.432361503492 7.323838342036848  L 217.432361503492 8  L 237.667264201001 8  L 238.41000415883897 13.253648203197182  L 238.27193070513832 13.253648203197182  C 236.8721515538283 12.636646541710286  235.01530165923336 12.278691379320941  232.13480374582323 12.278691379320941  L 228.22113550644622 12.278691379320941  L 228.22113550644622 20.285583169608927  Z M 278.13706959601905 30.986558550511457  L 278.36084381408557 30.981848614164225  L 277.599059241944 37  L 256.77853465460134 37  L 256.77853465460134 37.08121618382478  C 257.67839268044344 35.154852217808426  257.7640934448094 33.57231360513975  257 30.6945424969833  L 257 13.668122601753268  C 257.7640934448094 10.168639895762697  257.43081269449743 8.750949055247  256.77853465460134 7.323838342036848  L 256.77853465460134 8  L 277.0134373521103 8  L 277.76093846352416 13.253648203197182  L 277.62286500982356 13.253648203197182  C 276.2230858585135 12.636646541710286  274.3662359639186 12.278691379320941  271.4857380505085 12.278691379320941  L 267.57683096470726 12.278691379320941  L 267.57683096470726 19.34359590016328  L 268.40051053333525 19.34359590016328  C 272.73792144096603 19.34359590016328  274.11389482439665 19.03274010124622  274.8090232464758 18.872602265440456  L 275.0137528502388 18.872602265440456  L 275.0137528502388 25.08029837108726  L 274.8090232464758 25.08029837108726  C 273.9044040670577 24.764732635822966  272.1142103225252 24.47271658229482  268.5147782191565 24.47271658229482  L 267.5625475039796 24.47271658229482  L 267.5625475039796 31.537621103137155  C 268.89075757382517 31.766841648370896  270.23755087660203 31.874056759335318  271.585722275602 31.85789677474868  C 275.2565716826089 31.85789677474868  276.62302275888777 31.6271098937345  278.13706959601905 30.986558550511457  Z M 313.28390529319813 8  C 324.7725688718074 7.187250187967228  332 14.101436745698264  332 23.130384723334775  C 332 33.383916151250624  324.38215427858484 41.527396095608225  311.6222626952145 41.527396095608225  C 301.7476301788301 41.527396095608225  298.61955227947396 37.24135401963054  286.35482066799557 37.222514274241625  L 281.269908648951 37.222514274241625  L 281.269908648951 37.085926120172005  C 282.16500552121727 35.15956215415566  282.2554674391591 33.57702354148698  282 30.69454249698331  L 282 13.668122601753268  C 282.2554674391591 10.163929959415468  281.9174255352713 8.746239118899771  281.269908648951 7.323838342036848  L 281.269908648951 8  L 293.0299579813857 8  L 293.0299579813857 7.323838342036848  C 292.33482955930646 8.736819246205316  292.04439919117755 10.969329074791494  292 13.7576113923506  L 292 32.060424037679496  C 299.37657569803963 32.060424037679496  302.5189370581234 34.25054443914062  308.96553899987094 34.25054443914062  C 317.8736573403508 34.25054443914062  322.1539344050709 29.39931000149555  322.1539344050709 22.54164267993125  C 322.1539344050709 16.66364211859042  319.0925126557772 12.273981442973717  313.75049834363483 12.273981442973717  L 310 12.273981442973717  L 310 30.859390269136288  C 307.00249530758595 31.03246042892371  303.6829628008481 30.611211965367392  300 29.61596707346804  L 300 13.668122601753268  C 300.5192525562519 10.163929959415468  300.18121065236403 8.746239118899771  299.5336937660437 7.323838342036848  L 299.5336937660437 8  L 313.28390529319813 8  Z " fill-rule="nonzero" fill="#da291c" stroke="none" transform="matrix(1 0 0 1 92 29 )" />
  </g>
</svg>