<?xml version="1.0" encoding="utf-8"?>
<svg version="1.1" xmlns:xlink="http://www.w3.org/1999/xlink" width="196px" height="26px" xmlns="http://www.w3.org/2000/svg">
  <g transform="matrix(1 0 0 1 -142 -256 )">
    <path d="M 67.81339719780298 18.152976962314312  L 62.680873642999536 4.211435712321836  L 56.733217650686214 4.211435712321836  L 56.733217650686214 4.292474937867993  C 56.94781157763205 4.661158844117775  57.053966279820386 5.082340164205918  57.03959501512957 5.508063321060362  C 57.03959501512957 6.231827438869153  56.601109979779444 7.489332662861258  56.43808349227748 8.023073769044574  L 52.68004187520615 18.83482423932337  C 52.19096241270023 20.215285529661376  52.11788157347521 20.609303833178895  51.17626306807589 21.947848282717167  L 51.17626306807589 22.03168196431664  L 56.13451692934276 22.03168196431664  L 56.13451692934276 21.947848282717167  C 55.900632298306554 21.563363009815692  55.776271146095795 21.122902764517534  55.77473433623496 20.67357632240516  C 55.834167522931 19.923095713665727  56.002693463490246 19.185140634575564  56.27505700477549 18.482722776605584  L 56.53083994206307 17.717041817997057  L 61.91633563264545 17.717041817997057  C 61.91633563264545 17.717041817997057  62.26206421820997 18.692306980604265  62.46163112532445 19.265170471534002  C 62.60935917061379 19.703035533417516  62.68620784988832 20.161446252908306  62.689306047525484 20.623276113445478  C 62.67399298001965 21.076809481892667  62.5788609805243 21.524167135429177  62.408225896660014 21.945053826663848  L 62.408225896660014 22.02888750826332  L 69.59544535429005 22.02888750826332  L 69.59544535429005 21.945053826663848  C 68.8168533363927 20.975377576163268  68.47112475082817 19.888334171423427  67.81339719780298 18.152976962314312  Z M 60.91569029556439 14.830368714921843  L 57.497755661040294 14.830368714921843  L 59.153317749637885 9.856236940019736  L 59.178614963215786 9.856236940019736  L 60.91569029556439 14.830368714921843  Z M 48.12654343118555 14.690645912256056  L 48.12654343118555 18.07752664887479  C 48.12654343118555 19.64521649478495  48.2417862930404 21.10671701066911  48.761784572141515 21.94784828271716  L 48.761784572141515 22.031681964316636  L 41.765699617100005 22.031681964316636  L 41.765699617100005 21.94784828271716  C 42.47121079577232 20.768587828217896  42.347535529391514 19.53902716475895  42.347535529391514 18.130621313887787  L 42.347535529391514 14.51459518089716  L 41.36375500136238 12.673048641762055  L 37.990793190976746 6.377139153641576  C 37.62161610087337 5.590412193427269  37.10231652989356 4.882425658927293  36.46171717026861 4.292474937867994  L 36.46171717026861 4.211435712321837  L 42.59207526064448 4.211435712321837  L 42.59207526064448 4.292474937867994  L 46.237684817369605 11.650277726248472  L 47.24395175746799 9.615913719434577  C 47.61216675510176 8.864205041092628  48.07313820252112 7.939240087445102  48.241786293040406 7.598316448940575  C 48.54535285597512 6.994713941424365  48.868595029470406 6.20108842228268  48.868595029470406 5.538802337646837  C 48.895052793201444 5.109837086586409  48.76200612723148 4.686165772033794  48.494758428819324 4.348364058934309  L 48.494758428819324 4.211435712321836  L 53.3714990463352 4.211435712321836  L 53.3714990463352 4.292474937867993  L 48.494758428819324 13.961292882340633  L 48.12654343118555 14.690645912256056  Z M 84.04296510877515 18.052376544394953  L 83.56512885230387 22  L 70.93619767391836 22  L 70.93619767391836 21.95064273877048  C 71.46181755603678 20.807710212964317  71.51522278470121 19.87156743510353  72 18.161360330474263  L 72 8.05940169773768  C 71.51522278470121 5.983120850124047  71.3184666790954 5.141989578075995  70.93619767391836 4.295269393921309  L 70.93619767391836 4.214230168375152  L 77.78893175201848 4.214230168375152  L 77.78893175201848 4.295269393921309  C 77.35044671666834 5.516446689220311  77.29704148800391 6.234621894922469  78 8.11249636275068  L 78 18.34858888604642  C 78.17583971572736 18.50307028813784  79.0664424530936 18.581608396870973  79.9588705166999 18.58332319452495  C 82.0304312285784 18.58332319452495  83.10977900790179 18.40727246316606  83.89399262881645 18.052376544394953  L 84.04296510877515 18.052376544394953  Z M 37.86149632157864 13.033533472639792  C 37.86149632157864 7.928062263231839  33.915131003427454 3.778295024057888  28.08271787296898 3.778295024057888  C 22.486412069237502 3.778295024057888  18.635614002380578 7.201503689369733  18.635614002380578 12.063857222139209  C 18.635614002380578 19.150597773348057  26.224778075748233 20.167779776755005  28.813526265219203 17.867942444876107  L 28.372230428360414 16.951360859388526  C 26.07861639729819 17.420829476345585  23.995812479385066 15.671499986969899  23.995812479385066 11.801178353127527  C 23.995812479385066 8.646237468933997  25.65980697250864 6.67894040739968  27.992772224692036 6.67894040739968  C 30.660222856405326 6.67894040739968  32.3495145631068 9.364412674636155  32.3495145631068 13.223556484265263  C 32.3495145631068 17.619235856131006  29.81979320531758 20.947433015630114  25.04143064060461 20.947433015630114  C 19.602529721357794 20.947433015630114  15.467840702126745 16.683093078270215  12.954984153389455 12.427136509070266  C 15.765785662044143 11.32612082406384  17.42696935365906 9.230278784076997  17.42696935365906 6.363166873374995  C 17.42696935365906 2.6493347785183086  14.616167845004377 0.06446292920120149  9.537049518865356 0.06446292920120149  L 0 0.06446292920120149  L 0 0.14550215474735942  C 0.3822690051770375 0.983838970742097  0.5818359122915202 2.512406431905835  1 4.591481735572783  L 1 18.16136033047427  C 0.5818359122915202 19.868772979050217  0.5284306836270812 20.807710212964324  0 21.950642738770483  L 0 22.031681964316643  L 7.136625030474251 22.031681964316643  L 7.136625030474251 21.947848282717167  C 6.675653583054882 20.830065861390853  6.543545912148112 19.432837834732958  6.543545912148112 18.15577141836764  C 6.543545912148112 16.04875155416753  6.543545912148112 14.405611394817845  6.543545912148112 14.405611394817845  L 7.414894379831066 14.405611394817845  C 12.367526638080625 21.60692464421264  17.989129655390002 24.594198165207217  24.007055685419683 24.594198165207217  C 32.72054036224922 24.594198165207217  37.86149632157864 19.14221440518811  37.86149632157864 13.033533472639792  Z M 7.7718661714302115 11.55247176438242  L 6.543545912148112 11.560855132542368  L 6.543545912148112 3.4178101931801517  L 8.511106968206393 3.4178101931801517  C 10.815964205303237 3.4178101931801517  11.78287992428045 4.7563546427184145  11.78287992428045 6.908085803771575  C 11.78287992428045 9.515313301515208  10.23412829301172 11.55247176438242  7.7718661714302115 11.55247176438242  Z M 126.04758285411079 4.211435712321837  L 126.05601525863678 4.29526939392131  C 125.67374625345973 5.1336062099160475  125.49385495690582 5.971943025910785  125 8.05940169773768  L 125 19.136625493081482  C 125.47277273348732 20.103245891045752  125.6646447187594 21.062749605606708  126.05601525863678 21.947848282717167  L 126.05601525863678 22.028887508263324  L 121.88759662130185 22.028887508263324  C 120.99938334456697 21.657224853172323  120.02122441955517 20.567386992379163  118.77885015272976 19.234431454947533  C 117.76415080810543 18.136210225994425  112.92113980869343 12.633926257015634  112.92113980869343 12.633926257015634  L 112.83681576343376 12.633926257015634  L 112.83681576343375 17.943392758315635  C 111.37024902867363 18.102813515154466  109.91955978667043 18.383225663837383  108 18.781729574310372  L 108 8.056607241684365  C 108.49974903557958 5.980326394070732  108.30299292997377 5.141989578075995  107.92072392479672 4.29526939392131  L 107.92072392479672 4.214230168375153  L 112.98016664037516 4.214230168375153  L 121.13149101547374 13.944526146020738  L 121.13149101547374 13.913787129434265  L 121.13149101547374 8.056607241684365  C 121.13149101547374 5.980326394070732  120.93473490986793 5.139195122022679  120.5524659046909 4.292474937867994  L 120.5524659046909 4.211435712321837  L 126.04758285411079 4.211435712321837  Z M 118.61582366522778 22.034476420369955  L 117.69950237340639 22.034476420369955  C 110.60222856405329 22.09874890959622  108.91574765886048 25.94671489501206  99.90150722060491 25.94671489501206  C 97.12575228391724 25.916239937425466  94.36472899562197 25.540731414207574  91.68272360929859 24.828932473685743  L 91.68272360929859 24.747893248139587  C 92.21115429292568 23.60496072233343  92.2645595215901 22.6799957686859  93 20.96978866405664  L 93 4.591481735572783  C 92.2645595215901 2.512406431905834  92.0678034159843 0.9922223389020438  91.68272360929859 0.14550215474735917  L 91.68272360929859 0  L 106.24829702714717 0  L 106.72613328361848 4.0800962778159935  L 106.64462003986748 4.0800962778159935  C 105.56808306205274 3.6609278698186247  104.21046593337252 3.5212050671528354  102.3075533120133 3.5212050671528354  L 98.45675524515639 3.5212050671528354  L 98.45675524515639 10.479400639909155  L 100.34561385897234 10.479400639909155  C 103.20138819176552 10.479400639909155  104.91597711204486 10.275405348017102  105.35727294890363 10.166421561937787  L 105.49219142131908 10.166421561937787  L 105.49219142131908 14.338544449538263  L 105.35727294890363 14.338544449538263  C 104.76138302906885 14.126165789486263  102.7910111715019 13.933348321807475  100.41869469819736 13.933348321807475  L 98.50172806929487 13.933348321807475  L 98.50172806929487 20.871982702190586  C 99.90888425741932 21.19223545643404  101.34502164120202 21.370123537717493  102.78820036999326 21.402929352320584  C 108.1455880454891 21.402929352320584  110.45044528258595 19.497110323959213  115.81064375959043 19.497110323959213  C 115.98491345312702 19.497110323959213  116.11139952101647 19.497110323959213  116.29129081757034 19.497110323959213  C 117.00217650311089 20.398698591426008  117.77913861895331 21.246799031443807  118.61582366522778 22.034476420369955  Z M 148.63518377765985 8.056607241684365  L 148 8.062196153790996  L 148 18.15856587442095  C 148.63518377765985 19.8659785229969  148.68577820481565 20.804915756911008  149.21701968995137 21.947848282717167  L 149.21701968995137 22.028887508263324  L 142.27152916206566 22.028887508263324  L 142.27152916206566 21.947848282717167  C 142.79995984569274 20.804915756911008  142.8505542728485 19.8659785229969  142 18.15856587442095  L 142 8.056607241684365  C 142.8505542728485 5.980326394070732  142.6537981672427 5.139195122022679  142.27152916206566 4.292474937867994  L 142.27152916206566 4.211435712321837  L 149.21701968995137 4.211435712321837  L 149.21701968995137 4.292474937867994  C 148.8319398832657 5.139195122022679  148.63518377765985 5.980326394070732  148.63518377765985 8.056607241684365  Z M 134.73295951585376 11.982817996593054  L 134.73295951585376 11.985612452646366  L 135.2164173753424 11.985612452646366  C 137.7770575497268 11.985612452646366  138.60343319327131 11.803972809180841  138.9997562059916 11.706166847314787  L 139.134674678407 11.706166847314787  L 139.134674678407 15.38367101347837  L 139.01381021353487 15.38367101347837  C 138.4797579268905 15.193648001852894  137.42008575812767 15.020391726547318  135.29793061909336 15.020391726547318  L 134.73577031736244 15.020391726547318  L 134.73577031736244 18.07473219282148  C 134.73577031736244 19.854800698783638  134.82852676714805 21.07597799408264  135.37101145831838 21.947848282717167  L 135.37101145831838 22.028887508263324  L 128.36368329724226 22.028887508263324  L 128.36368329724226 21.947848282717167  C 128.8893031793607 20.804915756911008  128.9427084080251 19.8659785229969  129 18.15856587442095  L 129 8.056607241684365  C 128.9427084080251 5.980326394070732  128.7459523024193 5.139195122022679  128.36368329724226 4.292474937867994  L 128.36368329724226 4.211435712321837  L 140.3095897090247 4.211435712321837  L 140.7480747443748 7.810695108992576  L 140.66656150062383 7.810695108992576  C 139.84018585707935 7.444621366008208  138.74397326870402 7.2322427059562076  137.04343835596794 7.2322427059562076  L 134.73295951585376 7.2322427059562076  L 134.73295951585376 11.982817996593054  Z M 164.20140253258953 18.33182214972653  L 164.3335102034963 18.329027693673215  L 163.88378196211153 22  L 151.59214696476462 22  L 151.59214696476462 21.94784828271716  C 152.12338844990032 20.804915756911  152.17398287705615 19.865978522996897  152 18.158565874420947  L 152 8.056607241684365  C 152.17398287705615 5.980326394070732  151.97722677145032 5.139195122022679  151.59214696476462 4.292474937867994  L 151.59214696476462 4.211435712321837  L 163.53805337654703 4.211435712321837  L 163.97934921340584 7.810695108992576  L 163.89783596965486 7.810695108992576  C 163.07146032611038 7.444621366008208  161.97524773773503 7.2322427059562076  160.27471282499897 7.2322427059562076  L 157.96704478639342 7.2322427059562076  L 157.96704478639342 11.423926785929895  L 158.45331344739068 11.423926785929895  C 161.0139536217751 11.423926785929895  161.82627525777633 11.239492686411053  162.2366522780399 11.144481180598316  L 162.35751674291205 11.144481180598316  L 162.35751674291205 14.827574258868527  L 162.2366522780399 14.827574258868527  C 161.70259999139554 14.640345703296369  160.6457386241414 14.467089427990791  158.5207726835984 14.467089427990791  L 157.95861238186748 14.467089427990791  L 157.95861238186748 18.658773507964476  C 158.7427363990052 18.794772530658214  159.5378312404036 18.858384412805577  160.3337396566807 18.84879651958995  C 162.50086761985347 18.84879651958995  163.30756765283738 18.71186817297748  164.20140253258953 18.33182214972653  Z M 184.95073926947842 4.211435712321837  C 191.7332033098622 4.211435712321836  196 8.313697198589418  196 13.670669452795789  C 196 19.754200280864268  191.5027175861525 24.58581479704727  183.96976954295795 24.58581479704727  C 178.1401672140081 24.58581479704727  176.293470622822 22.042859788529903  169.05284593652752 22.03168196431664  L 166.05090992528432 22.03168196431664  L 166.05090992528432 21.95064273877048  C 166.5793406089114 20.807710212964317  166.63274583757587 19.868772979050213  166 18.15856587442095  L 166 8.056607241684365  C 166.63274583757587 5.977531938017417  166.43317893046137 5.136400665969363  166.05090992528432 4.292474937867994  L 166.05090992528432 4.211435712321837  L 172.99358965166138 4.211435712321837  L 172.99358965166138 4.292474937867994  C 172.58321263139783 5.130811753862732  172.41175373936986 6.455383923134416  172 8.109701906697364  L 172 18.96895812988253  C 176.7403880626981 18.96895812988253  178.59551705841017 20.268380194674375  182.40134230112864 20.268380194674375  C 187.66035192382154 20.268380194674375  190.18726248010213 17.390090459759115  190.18726248010213 13.32136244613132  C 190.18726248010213 9.83388129159321  188.37991711003716 7.229448249902893  185.22619781732658 7.229448249902893  L 183 7.229448249902893  L 183 18.256371836287  C 181.24243698881577 18.35905622945314  179.2827129788139 18.109124970907008  177.4149804247752 17.518635438211632  L 177.4149804247752 8.056607241684365  C 177.4149804247752 5.977531938017417  177.21541351766072 5.136400665969363  176.83314451248367 4.292474937867994  L 176.83314451248367 4.211435712321837  L 184.95073926947842 4.211435712321837  Z " fill-rule="nonzero" fill="#ffffff" stroke="none" transform="matrix(1 0 0 1 142 256 )" />
  </g>
</svg>